<?xml version="1.0" encoding="utf-8" standalone="no"?>
<!DOCTYPE svg PUBLIC "-//W3C//DTD SVG 1.1//EN"
  "http://www.w3.org/Graphics/SVG/1.1/DTD/svg11.dtd">
<svg xmlns:xlink="http://www.w3.org/1999/xlink" width="753.84pt" height="321.84pt" viewBox="0 0 753.84 321.84" xmlns="http://www.w3.org/2000/svg" version="1.1">
 <metadata>
  <rdf:RDF xmlns:dc="http://purl.org/dc/elements/1.1/" xmlns:cc="http://creativecommons.org/ns#" xmlns:rdf="http://www.w3.org/1999/02/22-rdf-syntax-ns#">
   <cc:Work>
    <dc:type rdf:resource="http://purl.org/dc/dcmitype/StillImage"/>
    <dc:date>2026-07-03T10:52:22.744012</dc:date>
    <dc:format>image/svg+xml</dc:format>
    <dc:creator>
     <cc:Agent>
      <dc:title>Matplotlib v3.6.0, https://matplotlib.org/</dc:title>
     </cc:Agent>
    </dc:creator>
   </cc:Work>
  </rdf:RDF>
 </metadata>
 <defs>
  <style type="text/css">*{stroke-linejoin: round; stroke-linecap: butt}</style>
 </defs>
 <g id="figure_1">
  <g id="patch_1">
   <path d="M 0 321.84 
L 753.84 321.84 
L 753.84 0 
L 0 0 
z
" style="fill: #ffffff"/>
  </g>
  <g id="axes_1">
   <g id="patch_2">
    <path d="M 51.5664 114.804 
L 510.0192 114.804 
L 510.0192 17.448 
L 51.5664 17.448 
z
" clip-path="url(#p2def7910ab)" style="fill: #e3f2fd; stroke: #e3f2fd; stroke-linejoin: miter"/>
   </g>
   <g id="patch_3">
    <path d="M 51.5664 181.416 
L 510.0192 181.416 
L 510.0192 114.804 
L 51.5664 114.804 
z
" clip-path="url(#p2def7910ab)" style="fill: #fff3e0; stroke: #fff3e0; stroke-linejoin: miter"/>
   </g>
   <g id="patch_4">
    <path d="M 51.5664 294.144 
L 510.0192 294.144 
L 510.0192 181.416 
L 51.5664 181.416 
z
" clip-path="url(#p2def7910ab)" style="fill: #ffe0b2; stroke: #ffe0b2; stroke-linejoin: miter"/>
   </g>
   <g id="patch_5">
    <path d="M 81.144 181.416 
L 114.4188 181.416 
L 114.4188 114.804 
L 81.144 114.804 
z
" clip-path="url(#p2def7910ab)" style="fill: #f4511e; stroke: #f4511e; stroke-linejoin: miter"/>
   </g>
   <g id="patch_6">
    <path d="M 147.6936 181.416 
L 180.9684 181.416 
L 180.9684 114.804 
L 147.6936 114.804 
z
" clip-path="url(#p2def7910ab)" style="fill: #f4511e; stroke: #f4511e; stroke-linejoin: miter"/>
   </g>
   <g id="patch_7">
    <path d="M 214.2432 181.416 
L 247.518 181.416 
L 247.518 114.804 
L 214.2432 114.804 
z
" clip-path="url(#p2def7910ab)" style="fill: #f4511e; stroke: #f4511e; stroke-linejoin: miter"/>
   </g>
   <g id="patch_8">
    <path d="M 280.7928 181.416 
L 314.0676 181.416 
L 314.0676 114.804 
L 280.7928 114.804 
z
" clip-path="url(#p2def7910ab)" style="fill: #f4511e; stroke: #f4511e; stroke-linejoin: miter"/>
   </g>
   <g id="patch_9">
    <path d="M 347.3424 181.416 
L 380.6172 181.416 
L 380.6172 114.804 
L 347.3424 114.804 
z
" clip-path="url(#p2def7910ab)" style="fill: #f4511e; stroke: #f4511e; stroke-linejoin: miter"/>
   </g>
   <g id="patch_10">
    <path d="M 413.892 181.416 
L 447.1668 181.416 
L 447.1668 114.804 
L 413.892 114.804 
z
" clip-path="url(#p2def7910ab)" style="fill: #f4511e; stroke: #f4511e; stroke-linejoin: miter"/>
   </g>
   <g id="patch_11">
    <path d="M 480.4416 181.416 
L 513.7164 181.416 
L 513.7164 114.804 
L 480.4416 114.804 
z
" clip-path="url(#p2def7910ab)" style="fill: #f4511e; stroke: #f4511e; stroke-linejoin: miter"/>
   </g>
   <g id="patch_12">
    <path d="M 550.6884 70.2252 
L 731.8512 70.2252 
Q 737.76672 70.2252 737.76672 66.126 
L 737.76672 14.886 
Q 737.76672 10.7868 731.8512 10.7868 
L 550.6884 10.7868 
Q 544.77288 10.7868 544.77288 14.886 
L 544.77288 66.126 
Q 544.77288 70.2252 550.6884 70.2252 
z
" clip-path="url(#p2def7910ab)" style="fill: #ffffff; stroke: #f4511e; stroke-width: 1.4; stroke-linejoin: miter"/>
   </g>
   <g id="patch_13">
    <path d="M 550.6884 141.9612 
L 731.8512 141.9612 
Q 737.76672 141.9612 737.76672 137.862 
L 737.76672 86.622 
Q 737.76672 82.5228 731.8512 82.5228 
L 550.6884 82.5228 
Q 544.77288 82.5228 544.77288 86.622 
L 544.77288 137.862 
Q 544.77288 141.9612 550.6884 141.9612 
z
" clip-path="url(#p2def7910ab)" style="fill: #ffffff; stroke: #f4511e; stroke-width: 1.4; stroke-linejoin: miter"/>
   </g>
   <g id="patch_14">
    <path d="M 550.6884 213.6972 
L 731.8512 213.6972 
Q 737.76672 213.6972 737.76672 209.598 
L 737.76672 158.358 
Q 737.76672 154.2588 731.8512 154.2588 
L 550.6884 154.2588 
Q 544.77288 154.2588 544.77288 158.358 
L 544.77288 209.598 
Q 544.77288 213.6972 550.6884 213.6972 
z
" clip-path="url(#p2def7910ab)" style="fill: #ffffff; stroke: #f4511e; stroke-width: 1.4; stroke-linejoin: miter"/>
   </g>
   <g id="patch_15">
    <path d="M 550.6884 285.4332 
L 731.8512 285.4332 
Q 737.76672 285.4332 737.76672 281.334 
L 737.76672 230.094 
Q 737.76672 225.9948 731.8512 225.9948 
L 550.6884 225.9948 
Q 544.77288 225.9948 544.77288 230.094 
L 544.77288 281.334 
Q 544.77288 285.4332 550.6884 285.4332 
z
" clip-path="url(#p2def7910ab)" style="fill: #ffffff; stroke: #f4511e; stroke-width: 1.4; stroke-linejoin: miter"/>
   </g>
   <g id="text_1">
    <!-- cover (air) -->
    <g style="fill: #1565c0" transform="translate(443.431962 35.382) scale(0.1 -0.1)">
     <defs>
      <path id="DejaVuSans-63" d="M 3122 3366 
L 3122 2828 
Q 2878 2963 2633 3030 
Q 2388 3097 2138 3097 
Q 1578 3097 1268 2742 
Q 959 2388 959 1747 
Q 959 1106 1268 751 
Q 1578 397 2138 397 
Q 2388 397 2633 464 
Q 2878 531 3122 666 
L 3122 134 
Q 2881 22 2623 -34 
Q 2366 -91 2075 -91 
Q 1284 -91 818 406 
Q 353 903 353 1747 
Q 353 2603 823 3093 
Q 1294 3584 2113 3584 
Q 2378 3584 2631 3529 
Q 2884 3475 3122 3366 
z
" transform="scale(0.015625)"/>
      <path id="DejaVuSans-6f" d="M 1959 3097 
Q 1497 3097 1228 2736 
Q 959 2375 959 1747 
Q 959 1119 1226 758 
Q 1494 397 1959 397 
Q 2419 397 2687 759 
Q 2956 1122 2956 1747 
Q 2956 2369 2687 2733 
Q 2419 3097 1959 3097 
z
M 1959 3584 
Q 2709 3584 3137 3096 
Q 3566 2609 3566 1747 
Q 3566 888 3137 398 
Q 2709 -91 1959 -91 
Q 1206 -91 779 398 
Q 353 888 353 1747 
Q 353 2609 779 3096 
Q 1206 3584 1959 3584 
z
" transform="scale(0.015625)"/>
      <path id="DejaVuSans-76" d="M 191 3500 
L 800 3500 
L 1894 563 
L 2988 3500 
L 3597 3500 
L 2284 0 
L 1503 0 
L 191 3500 
z
" transform="scale(0.015625)"/>
      <path id="DejaVuSans-65" d="M 3597 1894 
L 3597 1613 
L 953 1613 
Q 991 1019 1311 708 
Q 1631 397 2203 397 
Q 2534 397 2845 478 
Q 3156 559 3463 722 
L 3463 178 
Q 3153 47 2828 -22 
Q 2503 -91 2169 -91 
Q 1331 -91 842 396 
Q 353 884 353 1716 
Q 353 2575 817 3079 
Q 1281 3584 2069 3584 
Q 2775 3584 3186 3129 
Q 3597 2675 3597 1894 
z
M 3022 2063 
Q 3016 2534 2758 2815 
Q 2500 3097 2075 3097 
Q 1594 3097 1305 2825 
Q 1016 2553 972 2059 
L 3022 2063 
z
" transform="scale(0.015625)"/>
      <path id="DejaVuSans-72" d="M 2631 2963 
Q 2534 3019 2420 3045 
Q 2306 3072 2169 3072 
Q 1681 3072 1420 2755 
Q 1159 2438 1159 1844 
L 1159 0 
L 581 0 
L 581 3500 
L 1159 3500 
L 1159 2956 
Q 1341 3275 1631 3429 
Q 1922 3584 2338 3584 
Q 2397 3584 2469 3576 
Q 2541 3569 2628 3553 
L 2631 2963 
z
" transform="scale(0.015625)"/>
      <path id="DejaVuSans-20" transform="scale(0.015625)"/>
      <path id="DejaVuSans-28" d="M 1984 4856 
Q 1566 4138 1362 3434 
Q 1159 2731 1159 2009 
Q 1159 1288 1364 580 
Q 1569 -128 1984 -844 
L 1484 -844 
Q 1016 -109 783 600 
Q 550 1309 550 2009 
Q 550 2706 781 3412 
Q 1013 4119 1484 4856 
L 1984 4856 
z
" transform="scale(0.015625)"/>
      <path id="DejaVuSans-61" d="M 2194 1759 
Q 1497 1759 1228 1600 
Q 959 1441 959 1056 
Q 959 750 1161 570 
Q 1363 391 1709 391 
Q 2188 391 2477 730 
Q 2766 1069 2766 1631 
L 2766 1759 
L 2194 1759 
z
M 3341 1997 
L 3341 0 
L 2766 0 
L 2766 531 
Q 2569 213 2275 61 
Q 1981 -91 1556 -91 
Q 1019 -91 701 211 
Q 384 513 384 1019 
Q 384 1609 779 1909 
Q 1175 2209 1959 2209 
L 2766 2209 
L 2766 2266 
Q 2766 2663 2505 2880 
Q 2244 3097 1772 3097 
Q 1472 3097 1187 3025 
Q 903 2953 641 2809 
L 641 3341 
Q 956 3463 1253 3523 
Q 1550 3584 1831 3584 
Q 2591 3584 2966 3190 
Q 3341 2797 3341 1997 
z
" transform="scale(0.015625)"/>
      <path id="DejaVuSans-69" d="M 603 3500 
L 1178 3500 
L 1178 0 
L 603 0 
L 603 3500 
z
M 603 4863 
L 1178 4863 
L 1178 4134 
L 603 4134 
L 603 4863 
z
" transform="scale(0.015625)"/>
      <path id="DejaVuSans-29" d="M 513 4856 
L 1013 4856 
Q 1481 4119 1714 3412 
Q 1947 2706 1947 2009 
Q 1947 1309 1714 600 
Q 1481 -109 1013 -844 
L 513 -844 
Q 928 -128 1133 580 
Q 1338 1288 1338 2009 
Q 1338 2731 1133 3434 
Q 928 4138 513 4856 
z
" transform="scale(0.015625)"/>
     </defs>
     <use xlink:href="#DejaVuSans-63"/>
     <use xlink:href="#DejaVuSans-6f" x="54.980469"/>
     <use xlink:href="#DejaVuSans-76" x="116.162109"/>
     <use xlink:href="#DejaVuSans-65" x="175.341797"/>
     <use xlink:href="#DejaVuSans-72" x="236.865234"/>
     <use xlink:href="#DejaVuSans-20" x="277.978516"/>
     <use xlink:href="#DejaVuSans-28" x="309.765625"/>
     <use xlink:href="#DejaVuSans-61" x="348.779297"/>
     <use xlink:href="#DejaVuSans-69" x="410.058594"/>
     <use xlink:href="#DejaVuSans-72" x="437.841797"/>
     <use xlink:href="#DejaVuSans-29" x="478.955078"/>
    </g>
   </g>
   <g id="text_2">
    <g id="patch_16">
     <path d="M 64.8552 177.309687 
L 158.3802 177.309687 
L 158.3802 164.631562 
L 64.8552 164.631562 
z
" style="fill: #ffffff; opacity: 0.75"/>
    </g>
    <!-- patterned layer(s) -->
    <g style="fill: #bf360c" transform="translate(66.3552 173.73) scale(0.1 -0.1)">
     <defs>
      <path id="DejaVuSans-70" d="M 1159 525 
L 1159 -1331 
L 581 -1331 
L 581 3500 
L 1159 3500 
L 1159 2969 
Q 1341 3281 1617 3432 
Q 1894 3584 2278 3584 
Q 2916 3584 3314 3078 
Q 3713 2572 3713 1747 
Q 3713 922 3314 415 
Q 2916 -91 2278 -91 
Q 1894 -91 1617 61 
Q 1341 213 1159 525 
z
M 3116 1747 
Q 3116 2381 2855 2742 
Q 2594 3103 2138 3103 
Q 1681 3103 1420 2742 
Q 1159 2381 1159 1747 
Q 1159 1113 1420 752 
Q 1681 391 2138 391 
Q 2594 391 2855 752 
Q 3116 1113 3116 1747 
z
" transform="scale(0.015625)"/>
      <path id="DejaVuSans-74" d="M 1172 4494 
L 1172 3500 
L 2356 3500 
L 2356 3053 
L 1172 3053 
L 1172 1153 
Q 1172 725 1289 603 
Q 1406 481 1766 481 
L 2356 481 
L 2356 0 
L 1766 0 
Q 1100 0 847 248 
Q 594 497 594 1153 
L 594 3053 
L 172 3053 
L 172 3500 
L 594 3500 
L 594 4494 
L 1172 4494 
z
" transform="scale(0.015625)"/>
      <path id="DejaVuSans-6e" d="M 3513 2113 
L 3513 0 
L 2938 0 
L 2938 2094 
Q 2938 2591 2744 2837 
Q 2550 3084 2163 3084 
Q 1697 3084 1428 2787 
Q 1159 2491 1159 1978 
L 1159 0 
L 581 0 
L 581 3500 
L 1159 3500 
L 1159 2956 
Q 1366 3272 1645 3428 
Q 1925 3584 2291 3584 
Q 2894 3584 3203 3211 
Q 3513 2838 3513 2113 
z
" transform="scale(0.015625)"/>
      <path id="DejaVuSans-64" d="M 2906 2969 
L 2906 4863 
L 3481 4863 
L 3481 0 
L 2906 0 
L 2906 525 
Q 2725 213 2448 61 
Q 2172 -91 1784 -91 
Q 1150 -91 751 415 
Q 353 922 353 1747 
Q 353 2572 751 3078 
Q 1150 3584 1784 3584 
Q 2172 3584 2448 3432 
Q 2725 3281 2906 2969 
z
M 947 1747 
Q 947 1113 1208 752 
Q 1469 391 1925 391 
Q 2381 391 2643 752 
Q 2906 1113 2906 1747 
Q 2906 2381 2643 2742 
Q 2381 3103 1925 3103 
Q 1469 3103 1208 2742 
Q 947 2381 947 1747 
z
" transform="scale(0.015625)"/>
      <path id="DejaVuSans-6c" d="M 603 4863 
L 1178 4863 
L 1178 0 
L 603 0 
L 603 4863 
z
" transform="scale(0.015625)"/>
      <path id="DejaVuSans-79" d="M 2059 -325 
Q 1816 -950 1584 -1140 
Q 1353 -1331 966 -1331 
L 506 -1331 
L 506 -850 
L 844 -850 
Q 1081 -850 1212 -737 
Q 1344 -625 1503 -206 
L 1606 56 
L 191 3500 
L 800 3500 
L 1894 763 
L 2988 3500 
L 3597 3500 
L 2059 -325 
z
" transform="scale(0.015625)"/>
      <path id="DejaVuSans-73" d="M 2834 3397 
L 2834 2853 
Q 2591 2978 2328 3040 
Q 2066 3103 1784 3103 
Q 1356 3103 1142 2972 
Q 928 2841 928 2578 
Q 928 2378 1081 2264 
Q 1234 2150 1697 2047 
L 1894 2003 
Q 2506 1872 2764 1633 
Q 3022 1394 3022 966 
Q 3022 478 2636 193 
Q 2250 -91 1575 -91 
Q 1294 -91 989 -36 
Q 684 19 347 128 
L 347 722 
Q 666 556 975 473 
Q 1284 391 1588 391 
Q 1994 391 2212 530 
Q 2431 669 2431 922 
Q 2431 1156 2273 1281 
Q 2116 1406 1581 1522 
L 1381 1569 
Q 847 1681 609 1914 
Q 372 2147 372 2553 
Q 372 3047 722 3315 
Q 1072 3584 1716 3584 
Q 2034 3584 2315 3537 
Q 2597 3491 2834 3397 
z
" transform="scale(0.015625)"/>
     </defs>
     <use xlink:href="#DejaVuSans-70"/>
     <use xlink:href="#DejaVuSans-61" x="63.476562"/>
     <use xlink:href="#DejaVuSans-74" x="124.755859"/>
     <use xlink:href="#DejaVuSans-74" x="163.964844"/>
     <use xlink:href="#DejaVuSans-65" x="203.173828"/>
     <use xlink:href="#DejaVuSans-72" x="264.697266"/>
     <use xlink:href="#DejaVuSans-6e" x="304.060547"/>
     <use xlink:href="#DejaVuSans-65" x="367.439453"/>
     <use xlink:href="#DejaVuSans-64" x="428.962891"/>
     <use xlink:href="#DejaVuSans-20" x="492.439453"/>
     <use xlink:href="#DejaVuSans-6c" x="524.226562"/>
     <use xlink:href="#DejaVuSans-61" x="552.009766"/>
     <use xlink:href="#DejaVuSans-79" x="613.289062"/>
     <use xlink:href="#DejaVuSans-65" x="672.46875"/>
     <use xlink:href="#DejaVuSans-72" x="733.992188"/>
     <use xlink:href="#DejaVuSans-28" x="775.105469"/>
     <use xlink:href="#DejaVuSans-73" x="814.119141"/>
     <use xlink:href="#DejaVuSans-29" x="866.21875"/>
    </g>
   </g>
   <g id="text_3">
    <!-- substrate -->
    <g style="fill: #8d6e63" transform="translate(447.8929 283.896) scale(0.1 -0.1)">
     <defs>
      <path id="DejaVuSans-75" d="M 544 1381 
L 544 3500 
L 1119 3500 
L 1119 1403 
Q 1119 906 1312 657 
Q 1506 409 1894 409 
Q 2359 409 2629 706 
Q 2900 1003 2900 1516 
L 2900 3500 
L 3475 3500 
L 3475 0 
L 2900 0 
L 2900 538 
Q 2691 219 2414 64 
Q 2138 -91 1772 -91 
Q 1169 -91 856 284 
Q 544 659 544 1381 
z
M 1991 3584 
L 1991 3584 
z
" transform="scale(0.015625)"/>
      <path id="DejaVuSans-62" d="M 3116 1747 
Q 3116 2381 2855 2742 
Q 2594 3103 2138 3103 
Q 1681 3103 1420 2742 
Q 1159 2381 1159 1747 
Q 1159 1113 1420 752 
Q 1681 391 2138 391 
Q 2594 391 2855 752 
Q 3116 1113 3116 1747 
z
M 1159 2969 
Q 1341 3281 1617 3432 
Q 1894 3584 2278 3584 
Q 2916 3584 3314 3078 
Q 3713 2572 3713 1747 
Q 3713 922 3314 415 
Q 2916 -91 2278 -91 
Q 1894 -91 1617 61 
Q 1341 213 1159 525 
L 1159 0 
L 581 0 
L 581 4863 
L 1159 4863 
L 1159 2969 
z
" transform="scale(0.015625)"/>
     </defs>
     <use xlink:href="#DejaVuSans-73"/>
     <use xlink:href="#DejaVuSans-75" x="52.099609"/>
     <use xlink:href="#DejaVuSans-62" x="115.478516"/>
     <use xlink:href="#DejaVuSans-73" x="178.955078"/>
     <use xlink:href="#DejaVuSans-74" x="231.054688"/>
     <use xlink:href="#DejaVuSans-72" x="270.263672"/>
     <use xlink:href="#DejaVuSans-61" x="311.376953"/>
     <use xlink:href="#DejaVuSans-74" x="372.65625"/>
     <use xlink:href="#DejaVuSans-65" x="411.865234"/>
    </g>
   </g>
   <g id="patch_17">
    <path d="M 126.682248 21.63408 
Q 158.785541 66.126473 189.187927 108.261555 
" style="fill: none; stroke: #404040; stroke-width: 2.6; stroke-linecap: round"/>
    <path d="M 188.397423 103.406136 
L 189.187927 108.261555 
L 184.829289 105.980707 
L 188.397423 103.406136 
z
" style="fill: #404040; stroke: #404040; stroke-width: 2.6; stroke-linecap: round"/>
   </g>
   <g id="text_4">
    <!-- one incident -->
    <g style="fill: #404040" transform="translate(70.208945 33.889716) scale(0.095 -0.095)">
     <use xlink:href="#DejaVuSans-6f"/>
     <use xlink:href="#DejaVuSans-6e" x="61.181641"/>
     <use xlink:href="#DejaVuSans-65" x="124.560547"/>
     <use xlink:href="#DejaVuSans-20" x="186.083984"/>
     <use xlink:href="#DejaVuSans-69" x="217.871094"/>
     <use xlink:href="#DejaVuSans-6e" x="245.654297"/>
     <use xlink:href="#DejaVuSans-63" x="309.033203"/>
     <use xlink:href="#DejaVuSans-69" x="364.013672"/>
     <use xlink:href="#DejaVuSans-64" x="391.796875"/>
     <use xlink:href="#DejaVuSans-65" x="455.273438"/>
     <use xlink:href="#DejaVuSans-6e" x="516.796875"/>
     <use xlink:href="#DejaVuSans-74" x="580.175781"/>
    </g>
    <!-- plane wave -->
    <g style="fill: #404040" transform="translate(72.411758 44.527637) scale(0.095 -0.095)">
     <defs>
      <path id="DejaVuSans-77" d="M 269 3500 
L 844 3500 
L 1563 769 
L 2278 3500 
L 2956 3500 
L 3675 769 
L 4391 3500 
L 4966 3500 
L 4050 0 
L 3372 0 
L 2619 2869 
L 1863 0 
L 1184 0 
L 269 3500 
z
" transform="scale(0.015625)"/>
     </defs>
     <use xlink:href="#DejaVuSans-70"/>
     <use xlink:href="#DejaVuSans-6c" x="63.476562"/>
     <use xlink:href="#DejaVuSans-61" x="91.259766"/>
     <use xlink:href="#DejaVuSans-6e" x="152.539062"/>
     <use xlink:href="#DejaVuSans-65" x="215.917969"/>
     <use xlink:href="#DejaVuSans-20" x="277.441406"/>
     <use xlink:href="#DejaVuSans-77" x="309.228516"/>
     <use xlink:href="#DejaVuSans-61" x="391.015625"/>
     <use xlink:href="#DejaVuSans-76" x="452.294922"/>
     <use xlink:href="#DejaVuSans-65" x="511.474609"/>
    </g>
   </g>
   <g id="patch_18">
    <path d="M 193.141359 110.555996 
Q 221.638622 66.124406 249.049411 23.386797 
" style="fill: none; stroke: #f4511e; stroke-width: 1.8; stroke-linecap: round"/>
    <path d="M 244.822124 25.902756 
L 249.049411 23.386797 
L 248.525806 28.278201 
L 244.822124 25.902756 
z
" style="fill: #f4511e; stroke: #f4511e; stroke-width: 1.8; stroke-linecap: round"/>
   </g>
   <g id="text_5">
    <!-- -1 -->
    <g style="fill: #f4511e" transform="translate(258.6096 30.258) scale(0.09 -0.09)">
     <defs>
      <path id="DejaVuSans-2d" d="M 313 2009 
L 1997 2009 
L 1997 1497 
L 313 1497 
L 313 2009 
z
" transform="scale(0.015625)"/>
      <path id="DejaVuSans-31" d="M 794 531 
L 1825 531 
L 1825 4091 
L 703 3866 
L 703 4441 
L 1819 4666 
L 2450 4666 
L 2450 531 
L 3481 531 
L 3481 0 
L 794 0 
L 794 531 
z
" transform="scale(0.015625)"/>
     </defs>
     <use xlink:href="#DejaVuSans-2d"/>
     <use xlink:href="#DejaVuSans-31" x="36.083984"/>
    </g>
   </g>
   <g id="patch_19">
    <path d="M 193.705055 111.102048 
Q 258.611743 66.124515 321.864303 22.293221 
" style="fill: none; stroke: #f4511e; stroke-width: 1.8; stroke-linecap: round"/>
    <path d="M 316.994701 22.991059 
L 321.864303 22.293221 
L 319.500812 26.607605 
L 316.994701 22.991059 
z
" style="fill: #f4511e; stroke: #f4511e; stroke-width: 1.8; stroke-linecap: round"/>
   </g>
   <g id="text_6">
    <!-- 0 -->
    <g style="fill: #f4511e" transform="translate(332.5536 30.258) scale(0.09 -0.09)">
     <defs>
      <path id="DejaVuSans-30" d="M 2034 4250 
Q 1547 4250 1301 3770 
Q 1056 3291 1056 2328 
Q 1056 1369 1301 889 
Q 1547 409 2034 409 
Q 2525 409 2770 889 
Q 3016 1369 3016 2328 
Q 3016 3291 2770 3770 
Q 2525 4250 2034 4250 
z
M 2034 4750 
Q 2819 4750 3233 4129 
Q 3647 3509 3647 2328 
Q 3647 1150 3233 529 
Q 2819 -91 2034 -91 
Q 1250 -91 836 529 
Q 422 1150 422 2328 
Q 422 3509 836 4129 
Q 1250 4750 2034 4750 
z
" transform="scale(0.015625)"/>
     </defs>
     <use xlink:href="#DejaVuSans-30"/>
    </g>
   </g>
   <g id="patch_20">
    <path d="M 193.889193 111.427145 
Q 295.583418 66.12519 395.439334 21.642151 
" style="fill: none; stroke: #f4511e; stroke-width: 1.8; stroke-linecap: round"/>
    <path d="M 390.524868 21.422991 
L 395.439334 21.642151 
L 392.315327 25.442227 
L 390.524868 21.422991 
z
" style="fill: #f4511e; stroke: #f4511e; stroke-width: 1.8; stroke-linecap: round"/>
   </g>
   <g id="text_7">
    <!-- +1 -->
    <g style="fill: #f4511e" transform="translate(406.4976 30.258) scale(0.09 -0.09)">
     <defs>
      <path id="DejaVuSans-2b" d="M 2944 4013 
L 2944 2272 
L 4684 2272 
L 4684 1741 
L 2944 1741 
L 2944 0 
L 2419 0 
L 2419 1741 
L 678 1741 
L 678 2272 
L 2419 2272 
L 2419 4013 
L 2944 4013 
z
" transform="scale(0.015625)"/>
     </defs>
     <use xlink:href="#DejaVuSans-2b"/>
     <use xlink:href="#DejaVuSans-31" x="83.789062"/>
    </g>
   </g>
   <g id="patch_21">
    <path d="M 220.219106 185.382221 
Q 169.879545 235.215282 120.970186 283.632532 
" style="fill: none; stroke: #1565c0; stroke-width: 1.8; stroke-linecap: round"/>
    <path d="M 125.644897 282.100513 
L 120.970186 283.632532 
L 122.549398 278.973552 
L 125.644897 282.100513 
z
" style="fill: #1565c0; stroke: #1565c0; stroke-width: 1.8; stroke-linecap: round"/>
   </g>
   <g id="text_8">
    <!-- -1 -->
    <g style="fill: #1565c0" transform="translate(121.8132 300.2928) scale(0.09 -0.09)">
     <use xlink:href="#DejaVuSans-2d"/>
     <use xlink:href="#DejaVuSans-31" x="36.083984"/>
    </g>
   </g>
   <g id="patch_22">
    <path d="M 221.6376 185.976435 
Q 221.6376 235.21602 221.6376 282.443144 
" style="fill: none; stroke: #1565c0; stroke-width: 1.8; stroke-linecap: round"/>
    <path d="M 223.8376 278.043144 
L 221.6376 282.443144 
L 219.4376 278.043144 
L 223.8376 278.043144 
z
" style="fill: #1565c0; stroke: #1565c0; stroke-width: 1.8; stroke-linecap: round"/>
   </g>
   <g id="text_9">
    <!-- 0 -->
    <g style="fill: #1565c0" transform="translate(225.3348 300.2928) scale(0.09 -0.09)">
     <use xlink:href="#DejaVuSans-30"/>
    </g>
   </g>
   <g id="patch_23">
    <path d="M 223.056094 185.382221 
Q 273.395655 235.215282 322.305014 283.632532 
" style="fill: none; stroke: #1565c0; stroke-width: 1.8; stroke-linecap: round"/>
    <path d="M 320.725802 278.973552 
L 322.305014 283.632532 
L 317.630303 282.100513 
L 320.725802 278.973552 
z
" style="fill: #1565c0; stroke: #1565c0; stroke-width: 1.8; stroke-linecap: round"/>
   </g>
   <g id="text_10">
    <!-- +1 -->
    <g style="fill: #1565c0" transform="translate(328.8564 300.2928) scale(0.09 -0.09)">
     <use xlink:href="#DejaVuSans-2b"/>
     <use xlink:href="#DejaVuSans-31" x="83.789062"/>
    </g>
   </g>
   <g id="text_11">
    <!-- reflected orders -->
    <g style="fill: #f4511e" transform="translate(369.5256 61.002) scale(0.095 -0.095)">
     <defs>
      <path id="DejaVuSans-66" d="M 2375 4863 
L 2375 4384 
L 1825 4384 
Q 1516 4384 1395 4259 
Q 1275 4134 1275 3809 
L 1275 3500 
L 2222 3500 
L 2222 3053 
L 1275 3053 
L 1275 0 
L 697 0 
L 697 3053 
L 147 3053 
L 147 3500 
L 697 3500 
L 697 3744 
Q 697 4328 969 4595 
Q 1241 4863 1831 4863 
L 2375 4863 
z
" transform="scale(0.015625)"/>
     </defs>
     <use xlink:href="#DejaVuSans-72"/>
     <use xlink:href="#DejaVuSans-65" x="38.863281"/>
     <use xlink:href="#DejaVuSans-66" x="100.386719"/>
     <use xlink:href="#DejaVuSans-6c" x="135.591797"/>
     <use xlink:href="#DejaVuSans-65" x="163.375"/>
     <use xlink:href="#DejaVuSans-63" x="224.898438"/>
     <use xlink:href="#DejaVuSans-74" x="279.878906"/>
     <use xlink:href="#DejaVuSans-65" x="319.087891"/>
     <use xlink:href="#DejaVuSans-64" x="380.611328"/>
     <use xlink:href="#DejaVuSans-20" x="444.087891"/>
     <use xlink:href="#DejaVuSans-6f" x="475.875"/>
     <use xlink:href="#DejaVuSans-72" x="537.056641"/>
     <use xlink:href="#DejaVuSans-64" x="576.419922"/>
     <use xlink:href="#DejaVuSans-65" x="639.896484"/>
     <use xlink:href="#DejaVuSans-72" x="701.419922"/>
     <use xlink:href="#DejaVuSans-73" x="742.533203"/>
    </g>
   </g>
   <g id="text_12">
    <!-- transmitted orders -->
    <g style="fill: #1565c0" transform="translate(339.948 255.714) scale(0.095 -0.095)">
     <defs>
      <path id="DejaVuSans-6d" d="M 3328 2828 
Q 3544 3216 3844 3400 
Q 4144 3584 4550 3584 
Q 5097 3584 5394 3201 
Q 5691 2819 5691 2113 
L 5691 0 
L 5113 0 
L 5113 2094 
Q 5113 2597 4934 2840 
Q 4756 3084 4391 3084 
Q 3944 3084 3684 2787 
Q 3425 2491 3425 1978 
L 3425 0 
L 2847 0 
L 2847 2094 
Q 2847 2600 2669 2842 
Q 2491 3084 2119 3084 
Q 1678 3084 1418 2786 
Q 1159 2488 1159 1978 
L 1159 0 
L 581 0 
L 581 3500 
L 1159 3500 
L 1159 2956 
Q 1356 3278 1631 3431 
Q 1906 3584 2284 3584 
Q 2666 3584 2933 3390 
Q 3200 3197 3328 2828 
z
" transform="scale(0.015625)"/>
     </defs>
     <use xlink:href="#DejaVuSans-74"/>
     <use xlink:href="#DejaVuSans-72" x="39.208984"/>
     <use xlink:href="#DejaVuSans-61" x="80.322266"/>
     <use xlink:href="#DejaVuSans-6e" x="141.601562"/>
     <use xlink:href="#DejaVuSans-73" x="204.980469"/>
     <use xlink:href="#DejaVuSans-6d" x="257.080078"/>
     <use xlink:href="#DejaVuSans-69" x="354.492188"/>
     <use xlink:href="#DejaVuSans-74" x="382.275391"/>
     <use xlink:href="#DejaVuSans-74" x="421.484375"/>
     <use xlink:href="#DejaVuSans-65" x="460.693359"/>
     <use xlink:href="#DejaVuSans-64" x="522.216797"/>
     <use xlink:href="#DejaVuSans-20" x="585.693359"/>
     <use xlink:href="#DejaVuSans-6f" x="617.480469"/>
     <use xlink:href="#DejaVuSans-72" x="678.662109"/>
     <use xlink:href="#DejaVuSans-64" x="718.025391"/>
     <use xlink:href="#DejaVuSans-65" x="781.501953"/>
     <use xlink:href="#DejaVuSans-72" x="843.025391"/>
     <use xlink:href="#DejaVuSans-73" x="884.138672"/>
    </g>
   </g>
   <g id="text_13">
    <!-- periodic ε(x, y) → Fourier series -->
    <g transform="translate(573.656331 38.064003) scale(0.086 -0.086)">
     <defs>
      <path id="DejaVuSans-3b5" d="M 1234 1888 
Q 884 1963 697 2166 
Q 509 2366 509 2656 
Q 509 3097 866 3344 
Q 1219 3588 1831 3588 
Q 2069 3588 2334 3550 
Q 2600 3513 2906 3438 
L 2906 2916 
Q 2603 3006 2353 3047 
Q 2100 3088 1878 3088 
Q 1506 3088 1291 2944 
Q 1072 2800 1072 2600 
Q 1072 2381 1284 2241 
Q 1494 2103 1856 2103 
L 2341 2103 
L 2341 1628 
L 1878 1628 
Q 1450 1628 1225 1469 
Q 981 1294 981 1019 
Q 981 738 1244 563 
Q 1509 388 1981 388 
Q 2272 388 2538 444 
Q 2803 503 3025 619 
L 3025 84 
Q 2744 -3 2481 -47 
Q 2216 -91 1966 -91 
Q 1222 -91 819 194 
Q 416 478 416 1019 
Q 416 1356 631 1584 
Q 847 1813 1234 1888 
z
" transform="scale(0.015625)"/>
      <path id="DejaVuSans-78" d="M 3513 3500 
L 2247 1797 
L 3578 0 
L 2900 0 
L 1881 1375 
L 863 0 
L 184 0 
L 1544 1831 
L 300 3500 
L 978 3500 
L 1906 2253 
L 2834 3500 
L 3513 3500 
z
" transform="scale(0.015625)"/>
      <path id="DejaVuSans-2c" d="M 750 794 
L 1409 794 
L 1409 256 
L 897 -744 
L 494 -744 
L 750 256 
L 750 794 
z
" transform="scale(0.015625)"/>
      <path id="DejaVuSans-2192" d="M 5050 2147 
L 5050 1866 
L 3822 638 
L 3447 1013 
L 4175 1741 
L 366 1741 
L 366 2272 
L 4175 2272 
L 3447 3000 
L 3822 3375 
L 5050 2147 
z
" transform="scale(0.015625)"/>
      <path id="DejaVuSans-46" d="M 628 4666 
L 3309 4666 
L 3309 4134 
L 1259 4134 
L 1259 2759 
L 3109 2759 
L 3109 2228 
L 1259 2228 
L 1259 0 
L 628 0 
L 628 4666 
z
" transform="scale(0.015625)"/>
     </defs>
     <use xlink:href="#DejaVuSans-70"/>
     <use xlink:href="#DejaVuSans-65" x="63.476562"/>
     <use xlink:href="#DejaVuSans-72" x="125"/>
     <use xlink:href="#DejaVuSans-69" x="166.113281"/>
     <use xlink:href="#DejaVuSans-6f" x="193.896484"/>
     <use xlink:href="#DejaVuSans-64" x="255.078125"/>
     <use xlink:href="#DejaVuSans-69" x="318.554688"/>
     <use xlink:href="#DejaVuSans-63" x="346.337891"/>
     <use xlink:href="#DejaVuSans-20" x="401.318359"/>
     <use xlink:href="#DejaVuSans-3b5" x="433.105469"/>
     <use xlink:href="#DejaVuSans-28" x="487.158203"/>
     <use xlink:href="#DejaVuSans-78" x="526.171875"/>
     <use xlink:href="#DejaVuSans-2c" x="585.351562"/>
     <use xlink:href="#DejaVuSans-20" x="617.138672"/>
     <use xlink:href="#DejaVuSans-79" x="648.925781"/>
     <use xlink:href="#DejaVuSans-29" x="708.105469"/>
     <use xlink:href="#DejaVuSans-20" x="747.119141"/>
     <use xlink:href="#DejaVuSans-2192" x="778.90625"/>
     <use xlink:href="#DejaVuSans-20" x="862.695312"/>
     <use xlink:href="#DejaVuSans-46" x="894.482422"/>
     <use xlink:href="#DejaVuSans-6f" x="948.376953"/>
     <use xlink:href="#DejaVuSans-75" x="1009.558594"/>
     <use xlink:href="#DejaVuSans-72" x="1072.9375"/>
     <use xlink:href="#DejaVuSans-69" x="1114.050781"/>
     <use xlink:href="#DejaVuSans-65" x="1141.833984"/>
     <use xlink:href="#DejaVuSans-72" x="1203.357422"/>
     <use xlink:href="#DejaVuSans-20" x="1244.470703"/>
     <use xlink:href="#DejaVuSans-73" x="1276.257812"/>
     <use xlink:href="#DejaVuSans-65" x="1328.357422"/>
     <use xlink:href="#DejaVuSans-72" x="1389.880859"/>
     <use xlink:href="#DejaVuSans-69" x="1430.994141"/>
     <use xlink:href="#DejaVuSans-65" x="1458.777344"/>
     <use xlink:href="#DejaVuSans-73" x="1520.300781"/>
    </g>
    <!-- (a convolution matrix per layer) -->
    <g transform="translate(572.811784 47.694122) scale(0.086 -0.086)">
     <use xlink:href="#DejaVuSans-28"/>
     <use xlink:href="#DejaVuSans-61" x="39.013672"/>
     <use xlink:href="#DejaVuSans-20" x="100.292969"/>
     <use xlink:href="#DejaVuSans-63" x="132.080078"/>
     <use xlink:href="#DejaVuSans-6f" x="187.060547"/>
     <use xlink:href="#DejaVuSans-6e" x="248.242188"/>
     <use xlink:href="#DejaVuSans-76" x="311.621094"/>
     <use xlink:href="#DejaVuSans-6f" x="370.800781"/>
     <use xlink:href="#DejaVuSans-6c" x="431.982422"/>
     <use xlink:href="#DejaVuSans-75" x="459.765625"/>
     <use xlink:href="#DejaVuSans-74" x="523.144531"/>
     <use xlink:href="#DejaVuSans-69" x="562.353516"/>
     <use xlink:href="#DejaVuSans-6f" x="590.136719"/>
     <use xlink:href="#DejaVuSans-6e" x="651.318359"/>
     <use xlink:href="#DejaVuSans-20" x="714.697266"/>
     <use xlink:href="#DejaVuSans-6d" x="746.484375"/>
     <use xlink:href="#DejaVuSans-61" x="843.896484"/>
     <use xlink:href="#DejaVuSans-74" x="905.175781"/>
     <use xlink:href="#DejaVuSans-72" x="944.384766"/>
     <use xlink:href="#DejaVuSans-69" x="985.498047"/>
     <use xlink:href="#DejaVuSans-78" x="1013.28125"/>
     <use xlink:href="#DejaVuSans-20" x="1072.460938"/>
     <use xlink:href="#DejaVuSans-70" x="1104.248047"/>
     <use xlink:href="#DejaVuSans-65" x="1167.724609"/>
     <use xlink:href="#DejaVuSans-72" x="1229.248047"/>
     <use xlink:href="#DejaVuSans-20" x="1270.361328"/>
     <use xlink:href="#DejaVuSans-6c" x="1302.148438"/>
     <use xlink:href="#DejaVuSans-61" x="1329.931641"/>
     <use xlink:href="#DejaVuSans-79" x="1391.210938"/>
     <use xlink:href="#DejaVuSans-65" x="1450.390625"/>
     <use xlink:href="#DejaVuSans-72" x="1511.914062"/>
     <use xlink:href="#DejaVuSans-29" x="1553.027344"/>
    </g>
   </g>
   <g id="text_14">
    <!-- one eigensolve per layer -->
    <g transform="translate(588.038488 109.800003) scale(0.086 -0.086)">
     <defs>
      <path id="DejaVuSans-67" d="M 2906 1791 
Q 2906 2416 2648 2759 
Q 2391 3103 1925 3103 
Q 1463 3103 1205 2759 
Q 947 2416 947 1791 
Q 947 1169 1205 825 
Q 1463 481 1925 481 
Q 2391 481 2648 825 
Q 2906 1169 2906 1791 
z
M 3481 434 
Q 3481 -459 3084 -895 
Q 2688 -1331 1869 -1331 
Q 1566 -1331 1297 -1286 
Q 1028 -1241 775 -1147 
L 775 -588 
Q 1028 -725 1275 -790 
Q 1522 -856 1778 -856 
Q 2344 -856 2625 -561 
Q 2906 -266 2906 331 
L 2906 616 
Q 2728 306 2450 153 
Q 2172 0 1784 0 
Q 1141 0 747 490 
Q 353 981 353 1791 
Q 353 2603 747 3093 
Q 1141 3584 1784 3584 
Q 2172 3584 2450 3431 
Q 2728 3278 2906 2969 
L 2906 3500 
L 3481 3500 
L 3481 434 
z
" transform="scale(0.015625)"/>
     </defs>
     <use xlink:href="#DejaVuSans-6f"/>
     <use xlink:href="#DejaVuSans-6e" x="61.181641"/>
     <use xlink:href="#DejaVuSans-65" x="124.560547"/>
     <use xlink:href="#DejaVuSans-20" x="186.083984"/>
     <use xlink:href="#DejaVuSans-65" x="217.871094"/>
     <use xlink:href="#DejaVuSans-69" x="279.394531"/>
     <use xlink:href="#DejaVuSans-67" x="307.177734"/>
     <use xlink:href="#DejaVuSans-65" x="370.654297"/>
     <use xlink:href="#DejaVuSans-6e" x="432.177734"/>
     <use xlink:href="#DejaVuSans-73" x="495.556641"/>
     <use xlink:href="#DejaVuSans-6f" x="547.65625"/>
     <use xlink:href="#DejaVuSans-6c" x="608.837891"/>
     <use xlink:href="#DejaVuSans-76" x="636.621094"/>
     <use xlink:href="#DejaVuSans-65" x="695.800781"/>
     <use xlink:href="#DejaVuSans-20" x="757.324219"/>
     <use xlink:href="#DejaVuSans-70" x="789.111328"/>
     <use xlink:href="#DejaVuSans-65" x="852.587891"/>
     <use xlink:href="#DejaVuSans-72" x="914.111328"/>
     <use xlink:href="#DejaVuSans-20" x="955.224609"/>
     <use xlink:href="#DejaVuSans-6c" x="987.011719"/>
     <use xlink:href="#DejaVuSans-61" x="1014.794922"/>
     <use xlink:href="#DejaVuSans-79" x="1076.074219"/>
     <use xlink:href="#DejaVuSans-65" x="1135.253906"/>
     <use xlink:href="#DejaVuSans-72" x="1196.777344"/>
    </g>
    <!-- (its natural modes + phases) -->
    <g transform="translate(578.7048 119.430122) scale(0.086 -0.086)">
     <defs>
      <path id="DejaVuSans-68" d="M 3513 2113 
L 3513 0 
L 2938 0 
L 2938 2094 
Q 2938 2591 2744 2837 
Q 2550 3084 2163 3084 
Q 1697 3084 1428 2787 
Q 1159 2491 1159 1978 
L 1159 0 
L 581 0 
L 581 4863 
L 1159 4863 
L 1159 2956 
Q 1366 3272 1645 3428 
Q 1925 3584 2291 3584 
Q 2894 3584 3203 3211 
Q 3513 2838 3513 2113 
z
" transform="scale(0.015625)"/>
     </defs>
     <use xlink:href="#DejaVuSans-28"/>
     <use xlink:href="#DejaVuSans-69" x="39.013672"/>
     <use xlink:href="#DejaVuSans-74" x="66.796875"/>
     <use xlink:href="#DejaVuSans-73" x="106.005859"/>
     <use xlink:href="#DejaVuSans-20" x="158.105469"/>
     <use xlink:href="#DejaVuSans-6e" x="189.892578"/>
     <use xlink:href="#DejaVuSans-61" x="253.271484"/>
     <use xlink:href="#DejaVuSans-74" x="314.550781"/>
     <use xlink:href="#DejaVuSans-75" x="353.759766"/>
     <use xlink:href="#DejaVuSans-72" x="417.138672"/>
     <use xlink:href="#DejaVuSans-61" x="458.251953"/>
     <use xlink:href="#DejaVuSans-6c" x="519.53125"/>
     <use xlink:href="#DejaVuSans-20" x="547.314453"/>
     <use xlink:href="#DejaVuSans-6d" x="579.101562"/>
     <use xlink:href="#DejaVuSans-6f" x="676.513672"/>
     <use xlink:href="#DejaVuSans-64" x="737.695312"/>
     <use xlink:href="#DejaVuSans-65" x="801.171875"/>
     <use xlink:href="#DejaVuSans-73" x="862.695312"/>
     <use xlink:href="#DejaVuSans-20" x="914.794922"/>
     <use xlink:href="#DejaVuSans-2b" x="946.582031"/>
     <use xlink:href="#DejaVuSans-20" x="1030.371094"/>
     <use xlink:href="#DejaVuSans-70" x="1062.158203"/>
     <use xlink:href="#DejaVuSans-68" x="1125.634766"/>
     <use xlink:href="#DejaVuSans-61" x="1189.013672"/>
     <use xlink:href="#DejaVuSans-73" x="1250.292969"/>
     <use xlink:href="#DejaVuSans-65" x="1302.392578"/>
     <use xlink:href="#DejaVuSans-73" x="1363.916016"/>
     <use xlink:href="#DejaVuSans-29" x="1416.015625"/>
    </g>
   </g>
   <g id="text_15">
    <!-- layers joined by S-matrices -->
    <g transform="translate(582.742769 181.536003) scale(0.086 -0.086)">
     <defs>
      <path id="DejaVuSans-6a" d="M 603 3500 
L 1178 3500 
L 1178 -63 
Q 1178 -731 923 -1031 
Q 669 -1331 103 -1331 
L -116 -1331 
L -116 -844 
L 38 -844 
Q 366 -844 484 -692 
Q 603 -541 603 -63 
L 603 3500 
z
M 603 4863 
L 1178 4863 
L 1178 4134 
L 603 4134 
L 603 4863 
z
" transform="scale(0.015625)"/>
      <path id="DejaVuSans-53" d="M 3425 4513 
L 3425 3897 
Q 3066 4069 2747 4153 
Q 2428 4238 2131 4238 
Q 1616 4238 1336 4038 
Q 1056 3838 1056 3469 
Q 1056 3159 1242 3001 
Q 1428 2844 1947 2747 
L 2328 2669 
Q 3034 2534 3370 2195 
Q 3706 1856 3706 1288 
Q 3706 609 3251 259 
Q 2797 -91 1919 -91 
Q 1588 -91 1214 -16 
Q 841 59 441 206 
L 441 856 
Q 825 641 1194 531 
Q 1563 422 1919 422 
Q 2459 422 2753 634 
Q 3047 847 3047 1241 
Q 3047 1584 2836 1778 
Q 2625 1972 2144 2069 
L 1759 2144 
Q 1053 2284 737 2584 
Q 422 2884 422 3419 
Q 422 4038 858 4394 
Q 1294 4750 2059 4750 
Q 2388 4750 2728 4690 
Q 3069 4631 3425 4513 
z
" transform="scale(0.015625)"/>
     </defs>
     <use xlink:href="#DejaVuSans-6c"/>
     <use xlink:href="#DejaVuSans-61" x="27.783203"/>
     <use xlink:href="#DejaVuSans-79" x="89.0625"/>
     <use xlink:href="#DejaVuSans-65" x="148.242188"/>
     <use xlink:href="#DejaVuSans-72" x="209.765625"/>
     <use xlink:href="#DejaVuSans-73" x="250.878906"/>
     <use xlink:href="#DejaVuSans-20" x="302.978516"/>
     <use xlink:href="#DejaVuSans-6a" x="334.765625"/>
     <use xlink:href="#DejaVuSans-6f" x="362.548828"/>
     <use xlink:href="#DejaVuSans-69" x="423.730469"/>
     <use xlink:href="#DejaVuSans-6e" x="451.513672"/>
     <use xlink:href="#DejaVuSans-65" x="514.892578"/>
     <use xlink:href="#DejaVuSans-64" x="576.416016"/>
     <use xlink:href="#DejaVuSans-20" x="639.892578"/>
     <use xlink:href="#DejaVuSans-62" x="671.679688"/>
     <use xlink:href="#DejaVuSans-79" x="735.15625"/>
     <use xlink:href="#DejaVuSans-20" x="794.335938"/>
     <use xlink:href="#DejaVuSans-53" x="826.123047"/>
     <use xlink:href="#DejaVuSans-2d" x="889.599609"/>
     <use xlink:href="#DejaVuSans-6d" x="925.683594"/>
     <use xlink:href="#DejaVuSans-61" x="1023.095703"/>
     <use xlink:href="#DejaVuSans-74" x="1084.375"/>
     <use xlink:href="#DejaVuSans-72" x="1123.583984"/>
     <use xlink:href="#DejaVuSans-69" x="1164.697266"/>
     <use xlink:href="#DejaVuSans-63" x="1192.480469"/>
     <use xlink:href="#DejaVuSans-65" x="1247.460938"/>
     <use xlink:href="#DejaVuSans-73" x="1308.984375"/>
    </g>
    <!-- (Redheffer ⋆ — never overflows) -->
    <g transform="translate(571.4593 191.166122) scale(0.086 -0.086)">
     <defs>
      <path id="DejaVuSans-52" d="M 2841 2188 
Q 3044 2119 3236 1894 
Q 3428 1669 3622 1275 
L 4263 0 
L 3584 0 
L 2988 1197 
Q 2756 1666 2539 1819 
Q 2322 1972 1947 1972 
L 1259 1972 
L 1259 0 
L 628 0 
L 628 4666 
L 2053 4666 
Q 2853 4666 3247 4331 
Q 3641 3997 3641 3322 
Q 3641 2881 3436 2590 
Q 3231 2300 2841 2188 
z
M 1259 4147 
L 1259 2491 
L 2053 2491 
Q 2509 2491 2742 2702 
Q 2975 2913 2975 3322 
Q 2975 3731 2742 3939 
Q 2509 4147 2053 4147 
L 1259 4147 
z
" transform="scale(0.015625)"/>
      <path id="DejaVuSans-22c6" d="M 778 2391 
L 1713 2391 
L 2003 3278 
L 2297 2391 
L 3228 2391 
L 2472 1841 
L 2766 953 
L 2003 1503 
L 1244 953 
L 1534 1841 
L 778 2391 
z
" transform="scale(0.015625)"/>
      <path id="DejaVuSans-2014" d="M 313 1978 
L 6088 1978 
L 6088 1528 
L 313 1528 
L 313 1978 
z
" transform="scale(0.015625)"/>
     </defs>
     <use xlink:href="#DejaVuSans-28"/>
     <use xlink:href="#DejaVuSans-52" x="39.013672"/>
     <use xlink:href="#DejaVuSans-65" x="103.996094"/>
     <use xlink:href="#DejaVuSans-64" x="165.519531"/>
     <use xlink:href="#DejaVuSans-68" x="228.996094"/>
     <use xlink:href="#DejaVuSans-65" x="292.375"/>
     <use xlink:href="#DejaVuSans-66" x="353.898438"/>
     <use xlink:href="#DejaVuSans-66" x="389.103516"/>
     <use xlink:href="#DejaVuSans-65" x="424.308594"/>
     <use xlink:href="#DejaVuSans-72" x="485.832031"/>
     <use xlink:href="#DejaVuSans-20" x="526.945312"/>
     <use xlink:href="#DejaVuSans-22c6" x="558.732422"/>
     <use xlink:href="#DejaVuSans-20" x="621.330078"/>
     <use xlink:href="#DejaVuSans-2014" x="653.117188"/>
     <use xlink:href="#DejaVuSans-20" x="753.117188"/>
     <use xlink:href="#DejaVuSans-6e" x="784.904297"/>
     <use xlink:href="#DejaVuSans-65" x="848.283203"/>
     <use xlink:href="#DejaVuSans-76" x="909.806641"/>
     <use xlink:href="#DejaVuSans-65" x="968.986328"/>
     <use xlink:href="#DejaVuSans-72" x="1030.509766"/>
     <use xlink:href="#DejaVuSans-20" x="1071.623047"/>
     <use xlink:href="#DejaVuSans-6f" x="1103.410156"/>
     <use xlink:href="#DejaVuSans-76" x="1164.591797"/>
     <use xlink:href="#DejaVuSans-65" x="1223.771484"/>
     <use xlink:href="#DejaVuSans-72" x="1285.294922"/>
     <use xlink:href="#DejaVuSans-66" x="1326.408203"/>
     <use xlink:href="#DejaVuSans-6c" x="1361.613281"/>
     <use xlink:href="#DejaVuSans-6f" x="1389.396484"/>
     <use xlink:href="#DejaVuSans-77" x="1450.578125"/>
     <use xlink:href="#DejaVuSans-73" x="1532.365234"/>
     <use xlink:href="#DejaVuSans-29" x="1584.464844"/>
    </g>
   </g>
   <g id="text_16">
    <!-- amplitudes → R, T, phase, -->
    <g transform="translate(585.541128 253.272003) scale(0.086 -0.086)">
     <defs>
      <path id="DejaVuSans-54" d="M -19 4666 
L 3928 4666 
L 3928 4134 
L 2272 4134 
L 2272 0 
L 1638 0 
L 1638 4134 
L -19 4134 
L -19 4666 
z
" transform="scale(0.015625)"/>
     </defs>
     <use xlink:href="#DejaVuSans-61"/>
     <use xlink:href="#DejaVuSans-6d" x="61.279297"/>
     <use xlink:href="#DejaVuSans-70" x="158.691406"/>
     <use xlink:href="#DejaVuSans-6c" x="222.167969"/>
     <use xlink:href="#DejaVuSans-69" x="249.951172"/>
     <use xlink:href="#DejaVuSans-74" x="277.734375"/>
     <use xlink:href="#DejaVuSans-75" x="316.943359"/>
     <use xlink:href="#DejaVuSans-64" x="380.322266"/>
     <use xlink:href="#DejaVuSans-65" x="443.798828"/>
     <use xlink:href="#DejaVuSans-73" x="505.322266"/>
     <use xlink:href="#DejaVuSans-20" x="557.421875"/>
     <use xlink:href="#DejaVuSans-2192" x="589.208984"/>
     <use xlink:href="#DejaVuSans-20" x="672.998047"/>
     <use xlink:href="#DejaVuSans-52" x="704.785156"/>
     <use xlink:href="#DejaVuSans-2c" x="774.267578"/>
     <use xlink:href="#DejaVuSans-20" x="806.054688"/>
     <use xlink:href="#DejaVuSans-54" x="837.841797"/>
     <use xlink:href="#DejaVuSans-2c" x="898.925781"/>
     <use xlink:href="#DejaVuSans-20" x="930.712891"/>
     <use xlink:href="#DejaVuSans-70" x="962.5"/>
     <use xlink:href="#DejaVuSans-68" x="1025.976562"/>
     <use xlink:href="#DejaVuSans-61" x="1089.355469"/>
     <use xlink:href="#DejaVuSans-73" x="1150.634766"/>
     <use xlink:href="#DejaVuSans-65" x="1202.734375"/>
     <use xlink:href="#DejaVuSans-2c" x="1264.257812"/>
    </g>
    <!-- fields, per-order efficiencies -->
    <g transform="translate(581.440675 262.902122) scale(0.086 -0.086)">
     <use xlink:href="#DejaVuSans-66"/>
     <use xlink:href="#DejaVuSans-69" x="35.205078"/>
     <use xlink:href="#DejaVuSans-65" x="62.988281"/>
     <use xlink:href="#DejaVuSans-6c" x="124.511719"/>
     <use xlink:href="#DejaVuSans-64" x="152.294922"/>
     <use xlink:href="#DejaVuSans-73" x="215.771484"/>
     <use xlink:href="#DejaVuSans-2c" x="267.871094"/>
     <use xlink:href="#DejaVuSans-20" x="299.658203"/>
     <use xlink:href="#DejaVuSans-70" x="331.445312"/>
     <use xlink:href="#DejaVuSans-65" x="394.921875"/>
     <use xlink:href="#DejaVuSans-72" x="456.445312"/>
     <use xlink:href="#DejaVuSans-2d" x="491.183594"/>
     <use xlink:href="#DejaVuSans-6f" x="529.142578"/>
     <use xlink:href="#DejaVuSans-72" x="590.324219"/>
     <use xlink:href="#DejaVuSans-64" x="629.6875"/>
     <use xlink:href="#DejaVuSans-65" x="693.164062"/>
     <use xlink:href="#DejaVuSans-72" x="754.6875"/>
     <use xlink:href="#DejaVuSans-20" x="795.800781"/>
     <use xlink:href="#DejaVuSans-65" x="827.587891"/>
     <use xlink:href="#DejaVuSans-66" x="889.111328"/>
     <use xlink:href="#DejaVuSans-66" x="924.316406"/>
     <use xlink:href="#DejaVuSans-69" x="959.521484"/>
     <use xlink:href="#DejaVuSans-63" x="987.304688"/>
     <use xlink:href="#DejaVuSans-69" x="1042.285156"/>
     <use xlink:href="#DejaVuSans-65" x="1070.068359"/>
     <use xlink:href="#DejaVuSans-6e" x="1131.591797"/>
     <use xlink:href="#DejaVuSans-63" x="1194.970703"/>
     <use xlink:href="#DejaVuSans-69" x="1249.951172"/>
     <use xlink:href="#DejaVuSans-65" x="1277.734375"/>
     <use xlink:href="#DejaVuSans-73" x="1339.257812"/>
    </g>
   </g>
   <g id="patch_24">
    <path d="M 641.2698 73.249061 
Q 641.2698 76.372621 641.2698 77.930935 
" style="fill: none; stroke: #737373; stroke-width: 1.4; stroke-linecap: round"/>
    <path d="M 643.4698 73.530935 
L 641.2698 77.930935 
L 639.0698 73.530935 
L 643.4698 73.530935 
z
" style="fill: #737373; stroke: #737373; stroke-width: 1.4; stroke-linecap: round"/>
   </g>
   <g id="patch_25">
    <path d="M 641.2698 144.985061 
Q 641.2698 148.108621 641.2698 149.666935 
" style="fill: none; stroke: #737373; stroke-width: 1.4; stroke-linecap: round"/>
    <path d="M 643.4698 145.266935 
L 641.2698 149.666935 
L 639.0698 145.266935 
L 643.4698 145.266935 
z
" style="fill: #737373; stroke: #737373; stroke-width: 1.4; stroke-linecap: round"/>
   </g>
   <g id="patch_26">
    <path d="M 641.2698 216.721061 
Q 641.2698 219.844621 641.2698 221.402935 
" style="fill: none; stroke: #737373; stroke-width: 1.4; stroke-linecap: round"/>
    <path d="M 643.4698 217.002935 
L 641.2698 221.402935 
L 639.0698 217.002935 
L 643.4698 217.002935 
z
" style="fill: #737373; stroke: #737373; stroke-width: 1.4; stroke-linecap: round"/>
   </g>
  </g>
 </g>
 <defs>
  <clipPath id="p2def7910ab">
   <rect x="7.2" y="7.2" width="739.44" height="307.44"/>
  </clipPath>
 </defs>
</svg>
